<?xml version="1.0" encoding="utf-8"?>
<!-- Generator: Adobe Illustrator 16.0.0, SVG Export Plug-In . SVG Version: 6.00 Build 0)  -->
<!DOCTYPE svg PUBLIC "-//W3C//DTD SVG 1.1//EN" "http://www.w3.org/Graphics/SVG/1.1/DTD/svg11.dtd">
<svg version="1.1" id="Layer_1" xmlns="http://www.w3.org/2000/svg" xmlns:xlink="http://www.w3.org/1999/xlink" x="0px" y="0px"
	 width="19.969px" height="19.969px" viewBox="2.042 2 19.969 19.969" enable-background="new 2.042 2 19.969 19.969"
	 xml:space="preserve">
<path fill="#EEF2F5" d="M12.026,2c-5.512,0-9.984,4.473-9.984,9.984c0,5.511,4.473,9.984,9.984,9.984
	c5.511,0,9.985-4.474,9.985-9.984C22.011,6.473,17.537,2,12.026,2z M12.026,4.995c1.658,0,2.996,1.338,2.996,2.996
	s-1.338,2.995-2.996,2.995S9.031,9.648,9.031,7.991S10.368,4.995,12.026,4.995z M12.011,20.284c-2.607,0-4.911-1.498-6.256-3.767
	c0.032-2.327,4.17-3.603,6.256-3.603c2.075,0,6.225,1.275,6.256,3.603C16.92,18.787,14.618,20.284,12.011,20.284z"/>
</svg>
