<?xml version="1.0" encoding="utf-8"?>
<!-- Generator: Adobe Illustrator 16.0.0, SVG Export Plug-In . SVG Version: 6.00 Build 0)  -->
<!DOCTYPE svg PUBLIC "-//W3C//DTD SVG 1.1//EN" "http://www.w3.org/Graphics/SVG/1.1/DTD/svg11.dtd">
<svg version="1.1" id="Layer_1" xmlns="http://www.w3.org/2000/svg" xmlns:xlink="http://www.w3.org/1999/xlink" x="0px" y="0px"
	 width="393.062px" height="237.403px" viewBox="0 0 393.062 237.403" enable-background="new 0 0 393.062 237.403"
	 xml:space="preserve">
<polygon fill="#F1F1F1" points="191.943,183.214 180.649,195.727 99.742,115.727 104.097,110.902 "/>
<polygon fill="#F1F1F1" points="362.2,168.433 355.558,176.05 300.538,123.964 303.101,121.028 "/>
<polygon fill="#F1F1F1" points="28.5,167.451 22.782,159.118 86.955,118.846 89.159,122.06 "/>
<polygon fill="#F1F1F1" points="141.796,64.43 146.385,68.746 112.646,101.783 110.878,100.118 "/>
<circle fill="#F27A0F" cx="21.226" cy="167.726" r="21.226"/>
<circle fill="#F27A0F" cx="146.476" cy="64.476" r="17.476"/>
<polygon fill="#F1F1F1" points="33.103,32.115 41.189,26.054 102.287,112.727 99.168,115.062 "/>
<circle fill="#F27A0F" cx="34.976" cy="28.976" r="28.976"/>
<circle fill="#F27A0F" cx="101.281" cy="111.726" r="34.227"/>
<polygon fill="#F1F1F1" points="168.385,213.124 157.485,196.035 288.834,119.635 293.034,126.225 "/>
<circle fill="#F27A0F" cx="185.253" cy="186.926" r="50.475"/>
<polygon fill="#F1F1F1" points="290.815,28.574 301.199,28.61 297.732,106.363 293.73,106.346 "/>
<circle fill="#F27A0F" cx="296.392" cy="24.976" r="24.309"/>
<circle fill="#F27A0F" cx="296.642" cy="119.094" r="38.477"/>
<circle fill="#F27A0F" cx="367.085" cy="181.428" r="25.976"/>
</svg>
