<?xml version="1.0" encoding="utf-8"?>
<!-- Generator: Adobe Illustrator 16.0.0, SVG Export Plug-In . SVG Version: 6.00 Build 0)  -->
<!DOCTYPE svg PUBLIC "-//W3C//DTD SVG 1.1//EN" "http://www.w3.org/Graphics/SVG/1.1/DTD/svg11.dtd">
<svg version="1.1" id="Layer_1" xmlns="http://www.w3.org/2000/svg" xmlns:xlink="http://www.w3.org/1999/xlink" x="0px" y="0px"
	 width="1508.906px" height="821.546px" viewBox="103.927 74.355 1508.906 821.546"
	 enable-background="new 103.927 74.355 1508.906 821.546" xml:space="preserve">
<g>
	<polygon fill="#FFFFFF" points="435.505,876.23 127.943,437.391 364.388,272.959 583.328,298.788 805.348,618.378 	"/>
	<path fill="#FFA500" d="M556.758,257.924c8.457,1.588,17.425,5.461,26.901,11.617c9.475,6.158,16.667,12.822,21.575,19.999
		l211.992,309.978c4.908,7.176,6.568,14.992,4.979,23.451c-1.587,8.458-5.968,15.139-13.144,20.047L447.419,890.34
		c-7.175,4.906-14.992,6.568-23.45,4.979c-8.458-1.589-15.14-5.969-20.047-13.145L109.488,451.648
		c-4.907-7.176-6.566-14.992-4.979-23.449c1.587-8.458,5.97-15.141,13.145-20.048l241.094-164.883
		c7.176-4.908,16.296-8.511,27.359-10.812c11.064-2.301,20.825-2.658,29.283-1.07L556.758,257.924z M392.385,273.975l69.192,101.172
		l101.172-69.191c-5.35-3.974-9.839-6.302-13.463-6.982l-141.82-26.623C403.842,271.67,398.814,272.211,392.385,273.975z
		 M776.896,614.462L588.458,338.926l-111.937,76.553c-7.176,4.907-14.991,6.566-23.449,4.979
		c-8.459-1.587-15.141-5.969-20.049-13.146l-76.552-111.936L149.819,436.705l282.656,413.303L776.896,614.462z M295.846,589.593
		l19.69,28.792l18.835-12.882l165.766,147.681l42.784-29.26l-54.808-154.057c-1.197-4.446-3.123-9.188-5.774-14.219
		c-1.604-3.115-2.897-5.391-3.878-6.826l1.077-0.736l5.224,5.906c0.547,0.416,2.088,1.996,4.622,4.738s4.623,4.737,6.265,5.984
		l123.692,106.947l42.784-29.26l-77.509-208.039l18.835-12.881l-19.69-28.792l-80.724,55.206l19.69,28.791l24.217-16.562
		l53.963,136.073c1.556,4.2,3.75,8.758,6.581,13.666l3.327,6.019l-1.077,0.736l-4.671-5.099c-0.793-0.773-2.44-2.412-4.941-4.914
		c-2.501-2.502-4.482-4.438-5.946-5.807L455.14,480.652l-30.675,20.979l61.544,173.146c0.746,1.859,1.845,4.333,3.298,7.421
		c1.452,3.086,2.458,5.229,3.014,6.429l2.788,6.387l-1.076,0.736l-4.402-5.283c-3.547-4.418-6.999-8.115-10.349-11.09
		l-107.239-99.638l24.217-16.562l-19.69-28.791L295.846,589.593z"/>
</g>
<g>
	<polygon fill="#FFFFFF" points="999.296,618.669 1295.602,172.152 1534.99,332.269 1590.854,545.531 1374.347,868.882 	"/>
	<path fill="#66AF13" d="M1611.862,515.469c1.588,8.462,1.228,18.225-1.076,29.294c-2.305,11.066-5.912,20.19-10.822,27.367
		L1387.83,882.175c-4.91,7.178-11.597,11.559-20.058,13.146c-8.461,1.585-16.28-0.076-23.458-4.987l-361.72-247.49
		c-7.178-4.91-11.559-11.596-13.146-20.057c-1.586-8.462,0.076-16.28,4.986-23.458l294.63-430.619
		c4.911-7.178,11.598-11.559,20.059-13.146c8.461-1.586,16.28,0.075,23.458,4.986l241.146,164.994
		c7.177,4.91,13.844,12.106,20.001,21.588c6.157,9.48,10.028,18.452,11.615,26.913L1611.862,515.469z M1537.296,368.039
		l-69.237,101.196l101.195,69.237c1.766-6.431,2.309-11.459,1.628-15.085L1544.28,381.51
		C1543.6,377.884,1541.272,373.394,1537.296,368.039z M1359.272,849.991l188.564-275.596l-111.962-76.604
		c-7.177-4.911-11.558-11.597-13.145-20.058c-1.586-8.462,0.076-16.281,4.986-23.458l76.604-111.961l-206.697-141.424
		l-282.846,413.396L1359.272,849.991z M1407.319,705.848l-58.926,86.125l-275.597-188.564l35.356-51.675l87.03-16.318l10.879,58.021
		l174.061-32.637L1407.319,705.848z M1218.754,500.966c-14.354-9.82-23.118-23.193-26.291-40.115
		c-3.172-16.923,0.15-32.562,9.972-46.915c9.821-14.354,23.193-23.117,40.115-26.29c16.924-3.174,32.562,0.15,46.915,9.972
		s23.118,23.192,26.291,40.116c3.172,16.921-0.151,32.561-9.973,46.914c-9.82,14.354-23.191,23.116-40.114,26.291
		C1248.746,514.111,1233.107,510.786,1218.754,500.966z"/>
</g>
<polygon fill="#FFFFFF" points="657.818,631.641 656.5,95.756 944.5,96.097 1109.327,242.5 1108.674,631.641 "/>
<path fill="#4FB0F9" d="M1104.317,197.7c6.06,6.059,11.253,14.281,15.581,24.669c4.326,10.387,6.491,19.908,6.491,28.563v373.93
	c0,8.655-3.029,16.012-9.089,22.071c-6.059,6.06-13.415,9.089-22.072,9.089h-436.25c-8.655,0-16.013-3.029-22.072-9.089
	c-6.059-6.06-9.088-13.416-9.088-22.071V105.516c0-8.654,3.03-16.013,9.088-22.072c6.059-6.059,13.417-9.088,22.072-9.088h290.833
	c8.656,0,18.177,2.164,28.564,6.492c10.387,4.328,18.609,9.521,24.668,15.58L1104.317,197.7z M960.199,118.5v122.047h122.047
	c-2.165-6.276-4.545-10.712-7.141-13.309L973.508,125.641C970.91,123.045,966.475,120.664,960.199,118.5z M1084.842,614.474v-332.38
	H949.812c-8.656,0-16.013-3.029-22.072-9.088c-6.06-6.06-9.088-13.418-9.088-22.073V115.903H669.366v498.57H1084.842z
	 M752.461,334.028c0-3.03,0.974-5.519,2.922-7.466c1.947-1.947,4.436-2.922,7.466-2.922h228.511c3.029,0,5.52,0.975,7.467,2.922
	s2.92,4.436,2.92,7.466v20.774c0,3.029-0.973,5.518-2.92,7.465s-4.438,2.922-7.467,2.922H762.849c-3.03,0-5.519-0.975-7.466-2.922
	c-1.948-1.947-2.922-4.436-2.922-7.465V334.028z M991.359,406.736c3.029,0,5.52,0.974,7.467,2.921
	c1.947,1.948,2.92,4.437,2.92,7.466v20.773c0,3.029-0.973,5.52-2.92,7.467s-4.438,2.92-7.467,2.92H762.849
	c-3.03,0-5.519-0.973-7.466-2.92c-1.948-1.947-2.922-4.438-2.922-7.467v-20.773c0-3.029,0.974-5.518,2.922-7.466
	c1.947-1.947,4.436-2.921,7.466-2.921H991.359z M991.359,489.832c3.029,0,5.52,0.974,7.467,2.92c1.947,1.949,2.92,4.438,2.92,7.467
	v20.773c0,3.029-0.973,5.519-2.92,7.467c-1.947,1.946-4.438,2.92-7.467,2.92H762.849c-3.03,0-5.519-0.974-7.466-2.92
	c-1.948-1.948-2.922-4.438-2.922-7.467v-20.773c0-3.029,0.974-5.518,2.922-7.467c1.947-1.946,4.436-2.92,7.466-2.92H991.359z"/>
</svg>
